<svg width="64" height="60" viewBox="0 0 64 60" fill="none" xmlns="http://www.w3.org/2000/svg">
<g clip-path="url(#clip0_144_5248)">
<path d="M15 17.3043C15 15.971 15.4928 14.8406 16.4783 13.913C17.4638 12.9276 18.6232 12.4348 19.9565 12.4348C21.2899 12.4348 22.4493 12.9276 23.4348 13.913C24.4203 14.8406 24.913 15.971 24.913 17.3043C24.913 18.6956 24.4203 19.8841 23.4348 20.8696C22.4493 21.7971 21.2899 22.2609 19.9565 22.2609C18.6232 22.2609 17.4638 21.7971 16.4783 20.8696C15.4928 19.8841 15 18.6956 15 17.3043ZM15 54.6087C15 53.2754 15.4928 52.1449 16.4783 51.2174C17.4638 50.2319 18.6232 49.7391 19.9565 49.7391C21.2899 49.7391 22.4493 50.2319 23.4348 51.2174C24.4203 52.1449 24.913 53.2754 24.913 54.6087C24.913 56 24.4203 57.1884 23.4348 58.1739C22.4493 59.1014 21.2899 59.5652 19.9565 59.5652C18.6232 59.5652 17.4638 59.1014 16.4783 58.1739C15.4928 57.1884 15 56 15 54.6087ZM27.4348 4.86957C27.4348 3.53624 27.9276 2.4058 28.913 1.47827C29.8985 0.492754 31.058 0 32.3913 0C33.7246 0 34.8841 0.492754 35.8696 1.47827C36.855 2.4058 37.3478 3.53624 37.3478 4.86957C37.3478 6.26087 36.855 7.44928 35.8696 8.43478C34.8841 9.36235 33.7246 9.82609 32.3913 9.82609C31.058 9.82609 29.8985 9.36235 28.913 8.43478C27.9276 7.44928 27.4348 6.26087 27.4348 4.86957ZM27.4348 29.7391C27.4348 28.4058 27.9276 27.2754 28.913 26.3478C29.8985 25.3623 31.058 24.8696 32.3913 24.8696C33.7246 24.8696 34.8841 25.3623 35.8696 26.3478C36.855 27.2754 37.3478 28.4058 37.3478 29.7391C37.3478 31.1304 36.855 32.3189 35.8696 33.3043C34.8841 34.2319 33.7246 34.6956 32.3913 34.6956C31.058 34.6956 29.8985 34.2319 28.913 33.3043C27.9276 32.3189 27.4348 31.1304 27.4348 29.7391ZM39.8696 54.6087C39.8696 53.2754 40.3623 52.1449 41.3478 51.2174C42.3333 50.2319 43.4928 49.7391 44.8261 49.7391C46.1594 49.7391 47.3189 50.2319 48.3043 51.2174C49.2898 52.1449 49.7826 53.2754 49.7826 54.6087C49.7826 56 49.2898 57.1884 48.3043 58.1739C47.3189 59.1014 46.1594 59.5652 44.8261 59.5652C43.4928 59.5652 42.3333 59.1014 41.3478 58.1739C40.3623 57.1884 39.8696 56 39.8696 54.6087ZM27.4348 42.1739C27.4348 40.8406 27.9276 39.7102 28.913 38.7826C29.8985 37.7971 31.058 37.3043 32.3913 37.3043C33.7246 37.3043 34.8841 37.7971 35.8696 38.7826C36.855 39.7102 37.3478 40.8406 37.3478 42.1739C37.3478 43.5652 36.855 44.7536 35.8696 45.7391C34.8841 46.6667 33.7246 47.1304 32.3913 47.1304C31.058 47.1304 29.8985 46.6667 28.913 45.7391C27.9276 44.7536 27.4348 43.5652 27.4348 42.1739ZM27.4348 54.6087C27.4348 53.2754 27.9276 52.1449 28.913 51.2174C29.8985 50.2319 31.058 49.7391 32.3913 49.7391C33.7246 49.7391 34.8841 50.2319 35.8696 51.2174C36.855 52.1449 37.3478 53.2754 37.3478 54.6087C37.3478 56 36.855 57.1884 35.8696 58.1739C34.8841 59.1014 33.7246 59.5652 32.3913 59.5652C31.058 59.5652 29.8985 59.1014 28.913 58.1739C27.9276 57.1884 27.4348 56 27.4348 54.6087ZM27.4348 17.3043C27.4348 15.971 27.9276 14.8406 28.913 13.913C29.8985 12.9276 31.058 12.4348 32.3913 12.4348C33.7246 12.4348 34.8841 12.9276 35.8696 13.913C36.855 14.8406 37.3478 15.971 37.3478 17.3043C37.3478 18.6956 36.855 19.8841 35.8696 20.8696C34.8841 21.7971 33.7246 22.2609 32.3913 22.2609C31.058 22.2609 29.8985 21.7971 28.913 20.8696C27.9276 19.8841 27.4348 18.6956 27.4348 17.3043Z" fill="white"/>
</g>
<defs>
<clipPath id="clip0_144_5248">
<rect width="34.7826" height="60" fill="white" transform="translate(15)"/>
</clipPath>
</defs>
</svg>
