<svg width="174" height="34" viewBox="0 0 174 34" fill="none" xmlns="http://www.w3.org/2000/svg">
<rect x="9.125" y="8.83594" width="17.328" height="16.416" fill="white"/>
<path d="M31.6812 10.747C31.6812 10.747 31.3687 8.59039 30.4062 7.64343C29.1875 6.39711 27.825 6.391 27.2 6.31769C22.725 6 16.0063 6 16.0063 6H15.9937C15.9937 6 9.275 6 4.8 6.31769C4.175 6.391 2.8125 6.39711 1.59375 7.64343C0.63125 8.59039 0.325 10.747 0.325 10.747C0.325 10.747 0 13.2824 0 15.8117V18.1822C0 20.7115 0.31875 23.2469 0.31875 23.2469C0.31875 23.2469 0.63125 25.4035 1.5875 26.3505C2.80625 27.5968 4.40625 27.554 5.11875 27.6884C7.68125 27.9267 16 28 16 28C16 28 22.725 27.9878 27.2 27.6762C27.825 27.6029 29.1875 27.5968 30.4062 26.3505C31.3687 25.4035 31.6812 23.2469 31.6812 23.2469C31.6812 23.2469 32 20.7176 32 18.1822V15.8117C32 13.2824 31.6812 10.747 31.6812 10.747ZM12.6938 22.5845V10.7435L22.8973 16.6793L12.6938 22.5845Z" fill="#FF0000"/>
<path d="M41.2 26V9.872H44.44V23.168H52.072V26H41.2ZM64.5616 15.104C64.0096 13.016 62.9056 12.344 60.2896 12.344C57.0016 12.344 55.4176 13.856 55.4176 17.912C55.4176 22.016 57.0016 23.528 60.2896 23.528C63.1696 23.528 64.2256 22.256 64.5616 21.488C64.7056 21.152 64.7296 20.864 64.7296 20.504V19.712H60.0496V17.096H67.6336V20.6C67.6336 21.128 67.5856 21.632 67.3936 22.184C66.8416 23.696 64.4416 26.36 60.2896 26.36C55.5136 26.36 52.2016 22.928 52.2016 17.912C52.2016 12.944 55.6336 9.512 60.2896 9.512C63.9856 9.512 66.7936 11.48 67.6336 15.104H64.5616ZM73.8293 26.18C72.2333 26.18 71.0093 24.92 71.0093 23.048C71.0093 21.2 72.2333 19.94 73.8293 19.94C74.5013 19.94 75.0773 20.168 75.5093 20.564V20.12H77.0933V26H75.6893L75.6053 25.448C75.1613 25.916 74.5613 26.18 73.8293 26.18ZM72.5693 23.048C72.5693 24.344 72.9773 24.8 74.0693 24.8C75.1613 24.8 75.5693 24.344 75.5693 23.048C75.5693 21.776 75.1613 21.308 74.0693 21.308C72.9773 21.308 72.5693 21.776 72.5693 23.048ZM77.8151 20.12H78.6791V18.656H80.2631V20.12H81.6311V21.488H80.2631V24.212C80.2631 24.596 80.4071 24.68 80.8031 24.68H81.6311V26H80.6231C79.5911 26 78.6791 25.544 78.6791 24.332V21.488H77.8151V20.12ZM88.6507 26H85.4107V9.872H88.6507V26ZM100.059 21.68C100.059 20.408 99.5071 20.024 98.0671 19.616L95.6431 18.944C92.5951 18.104 91.1311 16.832 91.1311 14C91.1311 11.408 93.6751 9.512 97.0351 9.512C100.395 9.512 102.771 11.192 103.275 14.072H100.059C99.8911 12.824 99.0031 12.296 97.0831 12.296C95.0911 12.296 94.3471 12.824 94.3471 14C94.3471 15.104 94.8751 15.488 96.3151 15.896L98.6671 16.568C101.643 17.408 103.275 18.656 103.275 21.56C103.275 25.04 100.155 26.36 97.0111 26.36C93.8671 26.36 91.1311 25.04 90.4591 21.44H93.7231C94.0111 23.096 95.0431 23.576 97.0111 23.576C99.1711 23.576 100.059 23.168 100.059 21.68ZM105.075 26V9.872H115.707V12.704H108.315V16.544H114.987V19.328H108.315V23.168H115.947V26H105.075ZM122.436 26V23.768L127.716 17.984C129.132 16.424 130.044 15.56 130.044 14.096C130.044 12.848 129.348 12.344 127.764 12.344C126.012 12.344 125.268 12.896 125.196 15.032H121.956C122.148 11.96 124.476 9.512 127.764 9.512C131.22 9.512 133.404 11.48 133.404 14.096C133.404 15.92 132.612 17.072 130.812 19.016L126.9 23.288H133.596V26H122.436ZM140.839 26.36C136.903 26.36 134.431 22.928 134.431 17.912C134.431 12.944 136.903 9.512 140.839 9.512C144.775 9.512 147.247 12.944 147.247 17.912C147.247 22.928 144.775 26.36 140.839 26.36ZM137.647 17.912C137.647 22.136 138.391 23.528 140.839 23.528C143.287 23.528 144.031 22.136 144.031 17.912C144.031 13.736 143.287 12.344 140.839 12.344C138.391 12.344 137.647 13.736 137.647 17.912ZM148.452 26V23.768L153.732 17.984C155.148 16.424 156.06 15.56 156.06 14.096C156.06 12.848 155.364 12.344 153.78 12.344C152.028 12.344 151.284 12.896 151.212 15.032H147.972C148.164 11.96 150.492 9.512 153.78 9.512C157.236 9.512 159.42 11.48 159.42 14.096C159.42 15.92 158.628 17.072 156.828 19.016L152.916 23.288H159.612V26H148.452ZM166.657 26.24C163.081 26.24 160.681 24.128 160.681 20.528C160.681 18.824 161.353 17.048 162.745 14.96L166.177 9.752H169.945L165.913 15.536C166.273 15.344 166.921 15.152 167.617 15.128C170.473 15.032 172.633 17.168 172.633 20.648C172.633 24.248 170.233 26.24 166.657 26.24ZM163.897 20.528C163.897 22.664 164.785 23.36 166.657 23.36C168.529 23.36 169.417 22.664 169.417 20.528C169.417 18.368 168.529 17.672 166.657 17.672C164.785 17.672 163.897 18.368 163.897 20.528Z" fill="white"/>
</svg>
